# xmcd
#
# Track frame offsets: 
#        150
#        12247
#        26505
#        39517
#        53087
#        66993
#        80992
#        94114
#        107203
#        119889
#        134000
#        145985
#        159333
#        173260
#        185904
#        198149
#        210835
#        224039
#        238284
#        251597
#        266425
#        281328
#        293964
#        308696
#        323678
#
# Disc length: 4484 seconds
#
# Revision: 3
# Processed by: cddbd v1.5.2PL0 Copyright (c) Steve Scherf et al.
# Submitted via: ExactAudioCopyFreeDBPlugin 1.0
#
DISCID=7a118219
DTITLE=Carter Family, The - Carter Family 1927-1934 disc C
DYEAR=1931
DGENRE=Folklore
TTITLE0=Lonesome Valley
TTITLE1=On the Rock Where Moses Stood
TTITLE2=Room In Heaven For Me
TTITLE3=Lonesome Pine Special
TTITLE4=No More the Moon Shines On Lorena
TTITLE5=On My Way To Canaan's Land
TTITLE6=Where Shall I Be?
TTITLE7=Sow 'Em On the Mountain
TTITLE8=Darling Nellie Across the Sea
TTITLE9=Birds Were Singing Of You, The
TTITLE10=Weary Prodigal Son
TTITLE11=My Old Cottage Home
TTITLE12=When I'm Gone
TTITLE13=Sunshine In The Mountain
TTITLE14=Let the Church Roll On
TTITLE15=Lonesome For You
TTITLE16=Can't Feel At Home
TTITLE17=Why There's A Tear In My Eye
TTITLE18=Wonderful City, The
TTITLE19=Jimmie Rodgers Visits The Carter Family
TTITLE20=Carter Family and Jimmie Rodgers In Texas, The
TTITLE21='Mid The Green Fields Of Virginia
TTITLE22=Happiest Days Of All
TTITLE23=Picture On the Wall
TTITLE24=Amber Tresses
EXTD=YEAR: 1931
EXTT0=
EXTT1=
EXTT2=
EXTT3=
EXTT4=
EXTT5=
EXTT6=
EXTT7=
EXTT8=
EXTT9=
EXTT10=
EXTT11=
EXTT12=
EXTT13=
EXTT14=
EXTT15=
EXTT16=
EXTT17=
EXTT18=
EXTT19=
EXTT20=
EXTT21=
EXTT22=
EXTT23=
EXTT24=
PLAYORDER=
